<mxfile host="app.diagrams.net" agent="Mozilla/5.0 (Windows NT 10.0; Win64; x64) AppleWebKit/537.36 (KHTML, like Gecko) Chrome/130.0.0.0 Safari/537.36 Edg/130.0.0.0" version="24.9.0">
  <diagram name="PÃ¡gina-1" id="WiTYei5z0KSmKK1GdOok">
    <mxGraphModel dx="1191" dy="662" grid="1" gridSize="10" guides="1" tooltips="1" connect="1" arrows="1" fold="1" page="1" pageScale="1" pageWidth="827" pageHeight="1169" math="0" shadow="0">
      <root>
        <mxCell id="0" />
        <mxCell id="1" parent="0" />
        <mxCell id="TEv9Cc4aMR2sQGGNrcxT-1" value="INICIO" style="ellipse;whiteSpace=wrap;html=1;" vertex="1" parent="1">
          <mxGeometry x="360" y="30" width="100" height="70" as="geometry" />
        </mxCell>
        <mxCell id="TEv9Cc4aMR2sQGGNrcxT-14" style="edgeStyle=orthogonalEdgeStyle;rounded=0;orthogonalLoop=1;jettySize=auto;html=1;exitX=0;exitY=0;exitDx=72.5;exitDy=60;exitPerimeter=0;entryX=0.559;entryY=0.359;entryDx=0;entryDy=0;entryPerimeter=0;" edge="1" parent="1" source="TEv9Cc4aMR2sQGGNrcxT-7" target="TEv9Cc4aMR2sQGGNrcxT-13">
          <mxGeometry relative="1" as="geometry" />
        </mxCell>
        <mxCell id="TEv9Cc4aMR2sQGGNrcxT-7" value="INFORME O NA:" style="shape=display;whiteSpace=wrap;html=1;" vertex="1" parent="1">
          <mxGeometry x="330" y="130" width="140" height="60" as="geometry" />
        </mxCell>
        <mxCell id="TEv9Cc4aMR2sQGGNrcxT-8" style="edgeStyle=orthogonalEdgeStyle;rounded=0;orthogonalLoop=1;jettySize=auto;html=1;exitX=0.5;exitY=1;exitDx=0;exitDy=0;entryX=0;entryY=0;entryDx=72.5;entryDy=0;entryPerimeter=0;" edge="1" parent="1" source="TEv9Cc4aMR2sQGGNrcxT-1" target="TEv9Cc4aMR2sQGGNrcxT-7">
          <mxGeometry relative="1" as="geometry" />
        </mxCell>
        <mxCell id="TEv9Cc4aMR2sQGGNrcxT-17" style="edgeStyle=orthogonalEdgeStyle;rounded=0;orthogonalLoop=1;jettySize=auto;html=1;exitX=0.5;exitY=1;exitDx=0;exitDy=0;entryX=0.5;entryY=0;entryDx=0;entryDy=0;" edge="1" parent="1" source="TEv9Cc4aMR2sQGGNrcxT-13" target="TEv9Cc4aMR2sQGGNrcxT-16">
          <mxGeometry relative="1" as="geometry" />
        </mxCell>
        <mxCell id="TEv9Cc4aMR2sQGGNrcxT-13" value="NA" style="shape=manualInput;whiteSpace=wrap;html=1;" vertex="1" parent="1">
          <mxGeometry x="370" y="215" width="60" height="50" as="geometry" />
        </mxCell>
        <mxCell id="TEv9Cc4aMR2sQGGNrcxT-20" style="edgeStyle=orthogonalEdgeStyle;rounded=0;orthogonalLoop=1;jettySize=auto;html=1;exitX=0.5;exitY=1;exitDx=0;exitDy=0;" edge="1" parent="1" source="TEv9Cc4aMR2sQGGNrcxT-16" target="TEv9Cc4aMR2sQGGNrcxT-18">
          <mxGeometry relative="1" as="geometry" />
        </mxCell>
        <mxCell id="TEv9Cc4aMR2sQGGNrcxT-16" value="SOMA = 0" style="rounded=0;whiteSpace=wrap;html=1;" vertex="1" parent="1">
          <mxGeometry x="370" y="300" width="80" height="50" as="geometry" />
        </mxCell>
        <mxCell id="TEv9Cc4aMR2sQGGNrcxT-18" value="N = 1" style="rounded=0;whiteSpace=wrap;html=1;" vertex="1" parent="1">
          <mxGeometry x="370" y="380" width="80" height="50" as="geometry" />
        </mxCell>
        <mxCell id="TEv9Cc4aMR2sQGGNrcxT-29" style="edgeStyle=orthogonalEdgeStyle;rounded=0;orthogonalLoop=1;jettySize=auto;html=1;exitX=1;exitY=0.5;exitDx=0;exitDy=0;exitPerimeter=0;entryX=0;entryY=0.5;entryDx=0;entryDy=0;" edge="1" parent="1" source="TEv9Cc4aMR2sQGGNrcxT-21" target="TEv9Cc4aMR2sQGGNrcxT-35">
          <mxGeometry relative="1" as="geometry">
            <mxPoint x="490" y="505" as="targetPoint" />
          </mxGeometry>
        </mxCell>
        <mxCell id="TEv9Cc4aMR2sQGGNrcxT-21" value="N &amp;lt;=&amp;nbsp; NA" style="strokeWidth=2;html=1;shape=mxgraph.flowchart.decision;whiteSpace=wrap;" vertex="1" parent="1">
          <mxGeometry x="370" y="470" width="90" height="70" as="geometry" />
        </mxCell>
        <mxCell id="TEv9Cc4aMR2sQGGNrcxT-22" style="edgeStyle=orthogonalEdgeStyle;rounded=0;orthogonalLoop=1;jettySize=auto;html=1;exitX=0.5;exitY=1;exitDx=0;exitDy=0;entryX=0.5;entryY=0;entryDx=0;entryDy=0;entryPerimeter=0;" edge="1" parent="1" source="TEv9Cc4aMR2sQGGNrcxT-18" target="TEv9Cc4aMR2sQGGNrcxT-21">
          <mxGeometry relative="1" as="geometry" />
        </mxCell>
        <mxCell id="TEv9Cc4aMR2sQGGNrcxT-24" value="N, &quot;NOTA:&quot;" style="shape=display;whiteSpace=wrap;html=1;" vertex="1" parent="1">
          <mxGeometry x="354" y="584.5" width="120" height="40" as="geometry" />
        </mxCell>
        <mxCell id="TEv9Cc4aMR2sQGGNrcxT-25" style="edgeStyle=orthogonalEdgeStyle;rounded=0;orthogonalLoop=1;jettySize=auto;html=1;exitX=0.5;exitY=1;exitDx=0;exitDy=0;exitPerimeter=0;entryX=0;entryY=0;entryDx=65;entryDy=0;entryPerimeter=0;" edge="1" parent="1" source="TEv9Cc4aMR2sQGGNrcxT-21" target="TEv9Cc4aMR2sQGGNrcxT-24">
          <mxGeometry relative="1" as="geometry" />
        </mxCell>
        <mxCell id="TEv9Cc4aMR2sQGGNrcxT-32" style="edgeStyle=orthogonalEdgeStyle;rounded=0;orthogonalLoop=1;jettySize=auto;html=1;exitX=0.5;exitY=1;exitDx=0;exitDy=0;entryX=0.5;entryY=0;entryDx=0;entryDy=0;" edge="1" parent="1" source="TEv9Cc4aMR2sQGGNrcxT-27" target="TEv9Cc4aMR2sQGGNrcxT-30">
          <mxGeometry relative="1" as="geometry" />
        </mxCell>
        <mxCell id="TEv9Cc4aMR2sQGGNrcxT-27" value="NOTA" style="shape=manualInput;whiteSpace=wrap;html=1;" vertex="1" parent="1">
          <mxGeometry x="380" y="640" width="63" height="60" as="geometry" />
        </mxCell>
        <mxCell id="TEv9Cc4aMR2sQGGNrcxT-28" style="edgeStyle=orthogonalEdgeStyle;rounded=0;orthogonalLoop=1;jettySize=auto;html=1;exitX=0;exitY=0;exitDx=65;exitDy=40;exitPerimeter=0;entryX=0.571;entryY=0.4;entryDx=0;entryDy=0;entryPerimeter=0;" edge="1" parent="1" source="TEv9Cc4aMR2sQGGNrcxT-24" target="TEv9Cc4aMR2sQGGNrcxT-27">
          <mxGeometry relative="1" as="geometry" />
        </mxCell>
        <mxCell id="TEv9Cc4aMR2sQGGNrcxT-33" style="edgeStyle=orthogonalEdgeStyle;rounded=0;orthogonalLoop=1;jettySize=auto;html=1;exitX=0.5;exitY=1;exitDx=0;exitDy=0;entryX=0.5;entryY=0;entryDx=0;entryDy=0;" edge="1" parent="1" source="TEv9Cc4aMR2sQGGNrcxT-30" target="TEv9Cc4aMR2sQGGNrcxT-31">
          <mxGeometry relative="1" as="geometry" />
        </mxCell>
        <mxCell id="TEv9Cc4aMR2sQGGNrcxT-30" value="SOMA = SOMA + NOTA" style="rounded=0;whiteSpace=wrap;html=1;" vertex="1" parent="1">
          <mxGeometry x="340" y="740" width="140" height="30" as="geometry" />
        </mxCell>
        <mxCell id="TEv9Cc4aMR2sQGGNrcxT-31" value="N = N + 1" style="rounded=0;whiteSpace=wrap;html=1;" vertex="1" parent="1">
          <mxGeometry x="355" y="800" width="110" height="30" as="geometry" />
        </mxCell>
        <mxCell id="TEv9Cc4aMR2sQGGNrcxT-34" style="edgeStyle=orthogonalEdgeStyle;rounded=0;orthogonalLoop=1;jettySize=auto;html=1;exitX=0;exitY=0.5;exitDx=0;exitDy=0;entryX=0;entryY=0.5;entryDx=0;entryDy=0;entryPerimeter=0;" edge="1" parent="1" source="TEv9Cc4aMR2sQGGNrcxT-31" target="TEv9Cc4aMR2sQGGNrcxT-21">
          <mxGeometry relative="1" as="geometry">
            <Array as="points">
              <mxPoint x="310" y="815" />
              <mxPoint x="310" y="505" />
            </Array>
          </mxGeometry>
        </mxCell>
        <mxCell id="TEv9Cc4aMR2sQGGNrcxT-35" value="MEDIA = SOMA / NA" style="rounded=0;whiteSpace=wrap;html=1;" vertex="1" parent="1">
          <mxGeometry x="530" y="485" width="130" height="40" as="geometry" />
        </mxCell>
        <mxCell id="TEv9Cc4aMR2sQGGNrcxT-39" style="edgeStyle=orthogonalEdgeStyle;rounded=0;orthogonalLoop=1;jettySize=auto;html=1;exitX=0;exitY=0;exitDx=51.25;exitDy=45;exitPerimeter=0;entryX=0.5;entryY=0;entryDx=0;entryDy=0;" edge="1" parent="1" source="TEv9Cc4aMR2sQGGNrcxT-36" target="TEv9Cc4aMR2sQGGNrcxT-38">
          <mxGeometry relative="1" as="geometry" />
        </mxCell>
        <mxCell id="TEv9Cc4aMR2sQGGNrcxT-36" value="MEDIA:, MEDIA" style="shape=display;whiteSpace=wrap;html=1;" vertex="1" parent="1">
          <mxGeometry x="530" y="562" width="100" height="45" as="geometry" />
        </mxCell>
        <mxCell id="TEv9Cc4aMR2sQGGNrcxT-37" style="edgeStyle=orthogonalEdgeStyle;rounded=0;orthogonalLoop=1;jettySize=auto;html=1;exitX=0.5;exitY=1;exitDx=0;exitDy=0;entryX=0;entryY=0;entryDx=51.25;entryDy=0;entryPerimeter=0;" edge="1" parent="1" source="TEv9Cc4aMR2sQGGNrcxT-35" target="TEv9Cc4aMR2sQGGNrcxT-36">
          <mxGeometry relative="1" as="geometry" />
        </mxCell>
        <mxCell id="TEv9Cc4aMR2sQGGNrcxT-38" value="FIM" style="ellipse;whiteSpace=wrap;html=1;" vertex="1" parent="1">
          <mxGeometry x="545" y="650" width="100" height="70" as="geometry" />
        </mxCell>
      </root>
    </mxGraphModel>
  </diagram>
</mxfile>
